<?xml version="1.0" encoding="UTF-8"?>
<svg id="Layer_2" data-name="Layer 2" xmlns="http://www.w3.org/2000/svg" viewBox="0 0 255.42 475.29">
  <defs>
    <style>
      .cls-1 {
        fill: #f2c5ad;
      }

      .cls-2 {
        isolation: isolate;
      }
    </style>
  </defs>
  <g id="OBJECTS">
    <g id="g347">
      <g class="cls-2">
        <path class="cls-1" d="M22.85,234.14c-1.59,3.96-8.62,5.02-13.96,9.74-5.34,4.72-10.72,6.66-8.29,8.88s9.99-4.92,11.06-2.91c1.08,2.01-12.58,18.83-11.19,21.81,1.39,2.98,6.45-5.93,8.98-7.39,2.53-1.46-7.99,12.31-5.44,14.39,2.14,1.75,9.49-12.91,11.24-11.66,1.19.85-7.09,10.5-3.5,12.39,2.73,1.44,7.25-12.1,9.02-11.46,1.87.68-3.73,9.38-1.62,10.62,2.12,1.25,3.32-3.29,6.24-10.23,2.91-6.94,9.69-25.14,12.32-29.29,16.6-26.25,28.54-49.2,30.41-77.99,12.05-12.76,17.64-33.33,17.64-33.33,0,0,3.65,36.49,3.65,47.44s-9.46,21.05-11.97,56.22c-.88,12.38,0,44.53,3.2,77.89,1.39,14.56,5.94,25.25,2.38,39.23-7.97,31.31.57,72.51,1.48,84.37.91,11.86-9.88,18.58-15.35,25.88-5.47,7.3-.92,8.21,4.56,13.68,5.47,5.47,13.87,1.97,18.43-1.68,4.56-3.65,2.39-2.3,4.22-10.51,1.82-8.21,4.56-2.74,6.38-7.3,1.83-4.56-.76-16.45,0-26.46,1.14-15.06,6.75-25.87,12.2-60.11,2.61-16.39-.08-35.84,1.03-39.54,2.74-9.12,7.87-57.48,8.78-67.52.91-10.04,2.97-12.99,2.97-12.99,0,0,2.07,2.96,2.98,12.99.91,10.04,6.04,58.39,8.78,67.52,1.11,3.7-1.58,23.15,1.03,39.54,5.45,34.24,11.06,45.05,12.19,60.11.76,10.01-1.83,21.9,0,26.46,1.82,4.56,4.57-.91,6.39,7.3,1.82,8.21-.34,6.86,4.22,10.51,4.56,3.65,12.95,7.16,18.43,1.68,5.47-5.47,10.04-6.39,4.56-13.68-5.47-7.3-16.26-14.02-15.35-25.88.91-11.86,9.45-53.06,1.48-84.37-3.56-13.98.99-24.67,2.38-39.23,3.2-33.36,4.09-65.52,3.2-77.89-2.51-35.17-11.97-45.27-11.97-56.22s3.65-47.44,3.65-47.44c0,0,5.59,20.57,17.64,33.33,1.86,28.78,13.81,51.74,30.41,77.99,2.63,4.15,9.41,22.35,12.32,29.29,2.91,6.94,4.12,11.48,6.24,10.23,2.12-1.25-3.49-9.94-1.62-10.62,1.77-.64,6.29,12.89,9.02,11.46,3.58-1.89-4.7-11.54-3.51-12.39,1.74-1.25,9.11,13.41,11.24,11.66,2.55-2.08-7.97-15.85-5.44-14.39,2.53,1.46,7.59,10.37,8.98,7.39,1.39-2.98-12.27-19.8-11.2-21.81,1.08-2.01,8.64,5.13,11.06,2.91,2.43-2.22-2.95-4.16-8.29-8.88-5.34-4.72-12.37-5.78-13.96-9.74-1.83-4.56-9.67-36.83-13.17-50.6-3.5-13.77-15.88-32.31-15.88-32.31,0,0,3.23-28.54-9.57-48.77-2.43-18.62-9.44-23.77-28.83-29.93-5.25-3.65-20.75-11.63-20.75-13.91s.68-6.39,2.05-8.44c1.37-2.05,2.74-8.44,2.74-8.44,0,0,1.37.22,2.97-.92,1.6-1.14,3.42-8.9,2.28-12.09-1.14-3.19-4.11.23-4.11.23,0,0,.69-4.1-.68-11.4-1.37-7.3-6.39-17.57-21.9-17.57s-20.53,10.27-21.89,17.57c-1.37,7.3-.69,11.4-.69,11.4,0,0-2.96-3.42-4.1-.23-1.14,3.19.68,10.95,2.28,12.09,1.6,1.14,2.96.92,2.96.92,0,0,1.37,6.38,2.74,8.44,1.37,2.05,2.06,6.16,2.06,8.44s-15.51,10.27-20.76,13.91c-19.39,6.16-26.4,11.31-28.82,29.93-12.8,20.23-9.57,48.77-9.57,48.77,0,0-12.38,18.54-15.88,32.31-3.5,13.77-11.34,46.04-13.17,50.6Z"/>
      </g>
    </g>
  </g>
</svg>